{"asset":{"copyright":"","generator":"Source 2 Viewer 11.1.0.0 - https://valveresourceformat.github.io","version":"2.0"},"accessors":[{"bufferView":0,"componentType":5126,"count":132,"max":[-1.2813088687835261E-06,20.874784469604492,61.9760627746582],"min":[-1.7500066757202148,-21.125028610229492,-7.62939453125E-06],"type":"VEC3"},{"bufferView":1,"componentType":5126,"count":132,"max":[2.74609375,0.90380859375],"min":[-1.04296875,0.798828125],"type":"VEC2"},{"bufferView":2,"componentType":5126,"count":132,"max":[0.9999995231628418,0.9999995231628418,0.9999990463256836],"min":[-0.000979430042207241,-0.9999995231628418,-1],"type":"VEC3"},{"bufferView":3,"componentType":5126,"count":132,"max":[0.0009784698486328125,0.9999997019767761,0.9999995231628418,1],"min":[-0.0009784686844795942,-0.9999997019767761,-0.9999992251396179,-1],"type":"VEC4"},{"bufferView":4,"componentType":5126,"count":132,"max":[1,1,1,1],"min":[0.6000000238418579,0.6000000238418579,0.6000000238418579,1],"type":"VEC4"},{"bufferView":5,"componentType":5126,"count":4,"max":[-1.7499969005584717,16.275022506713867,57.37623596191406],"min":[-1.7500065565109253,-16.525266647338867,4.599822998046875],"type":"VEC3"},{"bufferView":6,"componentType":5126,"count":4,"max":[0.808313250541687,0.9960936307907104],"min":[0.19165624678134918,0.003875850699841976],"type":"VEC2"},{"bufferView":7,"componentType":5126,"count":4,"max":[0.9999995231628418,0,-0.000978472176939249],"min":[0.9999995231628418,0,-0.000978472176939249],"type":"VEC3"},{"bufferView":8,"componentType":5126,"count":4,"max":[-7.507006785090198E-07,0.9999997019767761,-0.0007672186475247145,-1],"min":[-7.507006785090198E-07,0.9999997019767761,-0.0007672186475247145,-1],"type":"VEC4"},{"bufferView":9,"componentType":5125,"count":246,"type":"SCALAR"},{"bufferView":10,"componentType":5125,"count":6,"type":"SCALAR"}],"bufferViews":[{"buffer":0,"byteLength":1584,"byteOffset":4224,"target":34962},{"buffer":0,"byteLength":1056,"byteOffset":7392,"target":34962},{"buffer":0,"byteLength":1584,"byteOffset":5808,"target":34962},{"buffer":0,"byteLength":2112,"target":34962},{"buffer":0,"byteLength":2112,"byteOffset":2112,"target":34962},{"buffer":0,"byteLength":48,"byteOffset":9496,"target":34962},{"buffer":0,"byteLength":32,"byteOffset":9592,"target":34962},{"buffer":0,"byteLength":48,"byteOffset":9544,"target":34962},{"buffer":0,"byteLength":64,"byteOffset":9432,"target":34962},{"buffer":0,"byteLength":984,"byteOffset":8448,"target":34963},{"buffer":0,"byteLength":24,"byteOffset":9624,"target":34963}],"buffers":[{"byteLength":9648,"uri":"italy_windowkit04_window01_a.bin"}],"images":[{"name":"window_001_layer_0_color_psd_3ac48bc.vtex","uri":"window_001_layer_0_color_psd_3ac48bc.png"},{"name":"window_001_layer_1_color_psd_89f65095.vtex","uri":"window_001_layer_1_color_psd_89f65095.png"},{"name":"window_001_layer_0_rough_psd_3cc1006c.vtex","uri":"window_001_layer_0_rough_psd_3cc1006c.png"},{"name":"wood_trim_02_painted_clean_color_tga_1563e20b.vtex","uri":"wood_trim_02_painted_clean_color_tga_1563e20b.png"},{"name":"window_001_layer_0_rough_psd_3cc1006c_orm_2400769242.png","uri":"window_001_layer_0_rough_psd_3cc1006c_orm_2400769242.png"},{"name":"wood_trim_02_painted_clean_normal_tga_c3fb70af.vtex","uri":"wood_trim_02_painted_clean_normal_tga_c3fb70af.png"},{"name":"wood_trim_02_painted_clean_color_tga_1563e20b_orm_1080998557.png","uri":"wood_trim_02_painted_clean_color_tga_1563e20b_orm_1080998557.png"}],"materials":[{"extras":{"baseColorTexture":{"index":3}},"name":"italy_windowkit_wood_01","normalTexture":{"index":5},"occlusionTexture":{"index":6},"pbrMetallicRoughness":{"baseColorTexture":{"index":3},"metallicRoughnessTexture":{"index":6}}},{"extras":{"baseColorTexture":{"index":1}},"name":"italy_windows_glass_01a","normalTexture":{"index":2},"occlusionTexture":{"index":4},"pbrMetallicRoughness":{"baseColorTexture":{"index":1},"metallicRoughnessTexture":{"index":4}}}],"meshes":[{"extras":{},"name":"italy_windowkit04_window01_a.vmdl_c.italy_windowkit04_window01_a","primitives":[{"attributes":{"POSITION":0,"TEXCOORD_0":1,"NORMAL":2,"TANGENT":3,"COLOR_0":4},"indices":9,"material":0},{"attributes":{"POSITION":5,"TEXCOORD_0":6,"NORMAL":7,"TANGENT":8},"indices":10,"material":1}]}],"nodes":[{"name":"italy_windowkit04_window01_a.vmdl_c.italy_windowkit04_window01_a","matrix":[3.027916E-09,0,0.025399996,0,0.025399996,3.027916E-09,0,0,0,0.025399996,3.027916E-09,0,0,0,0,1],"mesh":0}],"samplers":[{"magFilter":9729,"minFilter":9987}],"scenes":[{"name":"italy_windowkit04_window01_a.vmdl_c","nodes":[0]}],"textures":[{"name":"window_001_layer_0_color_psd_3ac48bc.vtex","sampler":0,"source":0},{"name":"window_001_layer_1_color_psd_89f65095.vtex","sampler":0,"source":1},{"name":"window_001_layer_0_rough_psd_3cc1006c.vtex","sampler":0,"source":2},{"name":"wood_trim_02_painted_clean_color_tga_1563e20b.vtex","sampler":0,"source":3},{"name":"window_001_layer_0_rough_psd_3cc1006c_orm_2400769242.png","sampler":0,"source":4},{"name":"wood_trim_02_painted_clean_normal_tga_c3fb70af.vtex","sampler":0,"source":5},{"name":"wood_trim_02_painted_clean_color_tga_1563e20b_orm_1080998557.png","sampler":0,"source":6}]}