{"asset":{"copyright":"","generator":"Source 2 Viewer 11.1.0.0 - https://valveresourceformat.github.io","version":"2.0"},"accessors":[{"bufferView":0,"componentType":5126,"count":740,"max":[8.842231750488281,8.788521766662598,34.4498176574707],"min":[-8.792938232421875,-8.846648216247559,-0.0005830000736750662],"type":"VEC3"},{"bufferView":1,"componentType":5126,"count":740,"max":[11.400876998901367,24.794921875],"min":[-10.24979305267334,-26.221147537231445],"type":"VEC2"},{"bufferView":2,"componentType":5126,"count":740,"max":[0.9999995231628418,0.9999995231628418,0.9999990463256836],"min":[-0.9999995231628418,-0.9999995231628418,-1],"type":"VEC3"},{"bufferView":3,"componentType":5126,"count":740,"max":[1,0.9999997019767761,0.0016285685123875737,-1],"min":[-0.9999992847442627,-0.9999997019767761,-0.995124101638794,-1],"type":"VEC4"},{"bufferView":4,"componentType":5126,"count":740,"max":[1,1,1,1],"min":[1,1,1,1],"type":"VEC4"},{"bufferView":5,"componentType":5126,"count":740,"max":[0.9686274528503418,0,0,0.6352941393852234],"min":[0,0,0,0],"type":"VEC4"},{"bufferView":6,"componentType":5125,"count":1404,"type":"SCALAR"}],"bufferViews":[{"buffer":0,"byteLength":8880,"byteOffset":35520,"target":34962},{"buffer":0,"byteLength":5920,"byteOffset":53280,"target":34962},{"buffer":0,"byteLength":8880,"byteOffset":44400,"target":34962},{"buffer":0,"byteLength":11840,"target":34962},{"buffer":0,"byteLength":11840,"byteOffset":11840,"target":34962},{"buffer":0,"byteLength":11840,"byteOffset":23680,"target":34962},{"buffer":0,"byteLength":5616,"byteOffset":59200,"target":34963}],"buffers":[{"byteLength":64816,"uri":"wood_bar_stool_1.bin"}],"images":[{"name":"wood_trim_02_dirty_color_tga_b99b0997.vtex","uri":"wood_trim_02_dirty_color_tga_b99b0997.png"},{"name":"wood_trim_02_dirty_normal_tga_e45948ff.vtex","uri":"wood_trim_02_dirty_normal_tga_e45948ff.png"},{"name":"wood_trim_02_dirty_color_tga_b99b0997_orm_189727694.png","uri":"wood_trim_02_dirty_color_tga_b99b0997_orm_189727694.png"}],"materials":[{"extras":{"baseColorTexture":{"index":0}},"name":"wood_trim_weathered_clean_blend_01","normalTexture":{"index":1},"occlusionTexture":{"index":2},"pbrMetallicRoughness":{"baseColorTexture":{"index":0},"metallicRoughnessTexture":{"index":2}}}],"meshes":[{"extras":{},"name":"wood_bar_stool_1.vmdl_c.unnamed_1","primitives":[{"attributes":{"POSITION":0,"TEXCOORD_0":1,"NORMAL":2,"TANGENT":3,"COLOR_0":4,"_TEXCOORD_4":5},"indices":6,"material":0}]}],"nodes":[{"name":"wood_bar_stool_1.vmdl_c.unnamed_1","matrix":[3.027916E-09,0,0.025399996,0,0.025399996,3.027916E-09,0,0,0,0.025399996,3.027916E-09,0,0,0,0,1],"mesh":0}],"samplers":[{"magFilter":9729,"minFilter":9987}],"scenes":[{"name":"wood_bar_stool_1.vmdl_c","nodes":[0]}],"textures":[{"name":"wood_trim_02_dirty_color_tga_b99b0997.vtex","sampler":0,"source":0},{"name":"wood_trim_02_dirty_normal_tga_e45948ff.vtex","sampler":0,"source":1},{"name":"wood_trim_02_dirty_color_tga_b99b0997_orm_189727694.png","sampler":0,"source":2}]}