{"asset":{"copyright":"","generator":"Source 2 Viewer 11.1.0.0 - https://valveresourceformat.github.io","version":"2.0"},"accessors":[{"bufferView":0,"componentType":5126,"count":8,"max":[-8.000000953674316,14.155214309692383,46.51369857788086],"min":[-8.000008583068848,-14.155226707458496,8.459003448486328],"type":"VEC3"},{"bufferView":1,"componentType":5126,"count":8,"max":[0.869045078754425,0.9960631132125854],"min":[0.13092440366744995,0.003875850699841976],"type":"VEC2"},{"bufferView":2,"componentType":5126,"count":8,"max":[0.9999995231628418,0,-0.000978472176939249],"min":[0.9999995231628418,0,-0.000978472176939249],"type":"VEC3"},{"bufferView":3,"componentType":5126,"count":8,"max":[-7.507006785090198E-07,0.9999997019767761,-0.0007672186475247145,-1],"min":[-7.507006785090198E-07,0.9999997019767761,-0.0007672186475247145,-1],"type":"VEC4"},{"bufferView":4,"componentType":5126,"count":228,"max":[0.27521201968193054,17.99974250793457,50.97267150878906],"min":[-8.000009536743164,-18.000028610229492,5.000003814697266],"type":"VEC3"},{"bufferView":5,"componentType":5126,"count":228,"max":[2.244140625,0.90380859375],"min":[-0.47998046875,0.798828125],"type":"VEC2"},{"bufferView":6,"componentType":5126,"count":228,"max":[0.9999995231628418,0.9999995231628418,0.9999990463256836],"min":[-0.000979430042207241,-0.9999995231628418,-1],"type":"VEC3"},{"bufferView":7,"componentType":5126,"count":228,"max":[0.0009784698486328125,0.9999997019767761,0.9999995231628418,1],"min":[-0.0011158047709614038,-0.9999997019767761,-0.9999992251396179,-1],"type":"VEC4"},{"bufferView":8,"componentType":5126,"count":228,"max":[1,1,1,1],"min":[0.6000000238418579,0.6000000238418579,0.6000000238418579,1],"type":"VEC4"},{"bufferView":9,"componentType":5125,"count":12,"type":"SCALAR"},{"bufferView":10,"componentType":5125,"count":540,"type":"SCALAR"}],"bufferViews":[{"buffer":0,"byteLength":96,"byteOffset":16880,"target":34962},{"buffer":0,"byteLength":64,"byteOffset":17072,"target":34962},{"buffer":0,"byteLength":96,"byteOffset":16976,"target":34962},{"buffer":0,"byteLength":128,"byteOffset":16752,"target":34962},{"buffer":0,"byteLength":2736,"byteOffset":7296,"target":34962},{"buffer":0,"byteLength":1824,"byteOffset":14928,"target":34962},{"buffer":0,"byteLength":2736,"byteOffset":10032,"target":34962},{"buffer":0,"byteLength":3648,"target":34962},{"buffer":0,"byteLength":3648,"byteOffset":3648,"target":34962},{"buffer":0,"byteLength":48,"byteOffset":17136,"target":34963},{"buffer":0,"byteLength":2160,"byteOffset":12768,"target":34963}],"buffers":[{"byteLength":17184,"uri":"italy_windowkit02_window02_a.bin"}],"images":[{"name":"window_001_layer_0_color_psd_3ac48bc.vtex","uri":"window_001_layer_0_color_psd_3ac48bc.png"},{"name":"window_001_layer_1_color_psd_89f65095.vtex","uri":"window_001_layer_1_color_psd_89f65095.png"},{"name":"window_001_layer_0_rough_psd_3cc1006c.vtex","uri":"window_001_layer_0_rough_psd_3cc1006c.png"},{"name":"wood_trim_02_painted_clean_color_tga_1563e20b.vtex","uri":"wood_trim_02_painted_clean_color_tga_1563e20b.png"},{"name":"window_001_layer_0_rough_psd_3cc1006c_orm_2400769242.png","uri":"window_001_layer_0_rough_psd_3cc1006c_orm_2400769242.png"},{"name":"wood_trim_02_painted_clean_normal_tga_c3fb70af.vtex","uri":"wood_trim_02_painted_clean_normal_tga_c3fb70af.png"},{"name":"wood_trim_02_painted_clean_color_tga_1563e20b_orm_1080998557.png","uri":"wood_trim_02_painted_clean_color_tga_1563e20b_orm_1080998557.png"}],"materials":[{"extras":{"baseColorTexture":{"index":1}},"name":"italy_windows_glass_01a","normalTexture":{"index":2},"occlusionTexture":{"index":4},"pbrMetallicRoughness":{"baseColorTexture":{"index":1},"metallicRoughnessTexture":{"index":4}}},{"extras":{"baseColorTexture":{"index":3}},"name":"italy_windowkit_wood_01","normalTexture":{"index":5},"occlusionTexture":{"index":6},"pbrMetallicRoughness":{"baseColorTexture":{"index":3},"metallicRoughnessTexture":{"index":6}}}],"meshes":[{"extras":{},"name":"italy_windowkit02_window02_a.vmdl_c.italy_windowkit02_window02_a","primitives":[{"attributes":{"POSITION":0,"TEXCOORD_0":1,"NORMAL":2,"TANGENT":3},"indices":9,"material":0},{"attributes":{"POSITION":4,"TEXCOORD_0":5,"NORMAL":6,"TANGENT":7,"COLOR_0":8},"indices":10,"material":1}]}],"nodes":[{"name":"italy_windowkit02_window02_a.vmdl_c.italy_windowkit02_window02_a","matrix":[3.027916E-09,0,0.025399996,0,0.025399996,3.027916E-09,0,0,0,0.025399996,3.027916E-09,0,0,0,0,1],"mesh":0}],"samplers":[{"magFilter":9729,"minFilter":9987}],"scenes":[{"name":"italy_windowkit02_window02_a.vmdl_c","nodes":[0]}],"textures":[{"name":"window_001_layer_0_color_psd_3ac48bc.vtex","sampler":0,"source":0},{"name":"window_001_layer_1_color_psd_89f65095.vtex","sampler":0,"source":1},{"name":"window_001_layer_0_rough_psd_3cc1006c.vtex","sampler":0,"source":2},{"name":"wood_trim_02_painted_clean_color_tga_1563e20b.vtex","sampler":0,"source":3},{"name":"window_001_layer_0_rough_psd_3cc1006c_orm_2400769242.png","sampler":0,"source":4},{"name":"wood_trim_02_painted_clean_normal_tga_c3fb70af.vtex","sampler":0,"source":5},{"name":"wood_trim_02_painted_clean_color_tga_1563e20b_orm_1080998557.png","sampler":0,"source":6}]}