{"asset":{"copyright":"","generator":"Source 2 Viewer 11.1.0.0 - https://valveresourceformat.github.io","version":"2.0"},"accessors":[{"bufferView":0,"componentType":5126,"count":48,"max":[1.2743741273880005,15.999983787536621,47.999969482421875],"min":[-0.725622832775116,-15.999602317810059,0],"type":"VEC3"},{"bufferView":1,"componentType":5126,"count":48,"max":[2.396484375,0.88818359375],"min":[-0.43408203125,0.798828125],"type":"VEC2"},{"bufferView":2,"componentType":5126,"count":48,"max":[1,1,1],"min":[-0,-1,-1],"type":"VEC3"},{"bufferView":3,"componentType":5126,"count":48,"max":[0,1,1,-1],"min":[-0,-1,-1,-1],"type":"VEC4"},{"bufferView":4,"componentType":5126,"count":48,"max":[1,1,1,1],"min":[0.6000000238418579,0.6000000238418579,0.6000000238418579,1],"type":"VEC4"},{"bufferView":5,"componentType":5125,"count":72,"type":"SCALAR"}],"bufferViews":[{"buffer":0,"byteLength":576,"byteOffset":1536,"target":34962},{"buffer":0,"byteLength":384,"byteOffset":2688,"target":34962},{"buffer":0,"byteLength":576,"byteOffset":2112,"target":34962},{"buffer":0,"byteLength":768,"target":34962},{"buffer":0,"byteLength":768,"byteOffset":768,"target":34962},{"buffer":0,"byteLength":288,"byteOffset":3072,"target":34963}],"buffers":[{"byteLength":3360,"uri":"italy_windowkit03_frame01_a_lp.bin"}],"images":[{"name":"concrete_trim_02_color_tga_256f6ee8.vtex","uri":"concrete_trim_02_color_tga_256f6ee8.png"},{"name":"concrete_trim_02_normal_tga_ab0db983.vtex","uri":"concrete_trim_02_normal_tga_ab0db983.png"},{"name":"concrete_trim_02_color_tga_256f6ee8_orm_2735845635.png","uri":"concrete_trim_02_color_tga_256f6ee8_orm_2735845635.png"}],"materials":[{"extras":{"baseColorTexture":{"index":0}},"name":"italy_windowkit_concrete_01","normalTexture":{"index":1},"occlusionTexture":{"index":2},"pbrMetallicRoughness":{"baseColorTexture":{"index":0},"metallicRoughnessTexture":{"index":2}}}],"meshes":[{"extras":{},"name":"italy_windowkit03_frame01_a_lp.vmdl_c.italy_windowkit03_frame01_a_lp","primitives":[{"attributes":{"POSITION":0,"TEXCOORD_0":1,"NORMAL":2,"TANGENT":3,"COLOR_0":4},"indices":5,"material":0}]}],"nodes":[{"name":"italy_windowkit03_frame01_a_lp.vmdl_c.italy_windowkit03_frame01_a_lp","matrix":[3.027916E-09,0,0.025399996,0,0.025399996,3.027916E-09,0,0,0,0.025399996,3.027916E-09,0,0,0,0,1],"mesh":0}],"samplers":[{"magFilter":9729,"minFilter":9987}],"scenes":[{"name":"italy_windowkit03_frame01_a_lp.vmdl_c","nodes":[0]}],"textures":[{"name":"concrete_trim_02_color_tga_256f6ee8.vtex","sampler":0,"source":0},{"name":"concrete_trim_02_normal_tga_ab0db983.vtex","sampler":0,"source":1},{"name":"concrete_trim_02_color_tga_256f6ee8_orm_2735845635.png","sampler":0,"source":2}]}