{"asset":{"copyright":"","generator":"Source 2 Viewer 11.1.0.0 - https://valveresourceformat.github.io","version":"2.0"},"accessors":[{"bufferView":0,"componentType":5126,"count":933,"max":[13.589418411254883,23.482696533203125,34.171695709228516],"min":[-19.870342254638672,-23.76251983642578,-0.005475667770951986],"type":"VEC3"},{"bufferView":1,"componentType":5126,"count":933,"max":[0.9871821999549866,0.9925839900970459],"min":[0.01269569993019104,0.005737479776144028],"type":"VEC2"},{"bufferView":2,"componentType":5126,"count":933,"max":[0.999462902545929,1,1],"min":[-0.9998700022697449,-1,-0.999462902545929],"type":"VEC3"},{"bufferView":3,"componentType":5126,"count":933,"max":[1,1,0.9998700022697449,1],"min":[-1,-1,-0.9997313618659973,-1],"type":"VEC4"},{"bufferView":4,"componentType":5125,"count":3732,"type":"SCALAR"}],"bufferViews":[{"buffer":0,"byteLength":11196,"byteOffset":29856,"target":34962},{"buffer":0,"byteLength":7464,"byteOffset":52248,"target":34962},{"buffer":0,"byteLength":11196,"byteOffset":41052,"target":34962},{"buffer":0,"byteLength":14928,"target":34962},{"buffer":0,"byteLength":14928,"byteOffset":14928,"target":34963}],"buffers":[{"byteLength":59712,"uri":"couch_chair_base_1.bin"}],"images":[{"name":"couch_chair_base_1_color_psd_d8067953.vtex","uri":"couch_chair_base_1_color_psd_d8067953.png"},{"name":"couch_chair_base_1_psd_bce63b92.vtex","uri":"couch_chair_base_1_psd_bce63b92.png"},{"name":"couch_chair_base_1_ao_psd_29da7812_orm_1029829409.png","uri":"couch_chair_base_1_ao_psd_29da7812_orm_1029829409.png"}],"materials":[{"extras":{"baseColorTexture":{"index":0}},"name":"couch_chair_base_1","normalTexture":{"index":1},"occlusionTexture":{"index":2},"pbrMetallicRoughness":{"baseColorTexture":{"index":0},"metallicRoughnessTexture":{"index":2}}}],"meshes":[{"extras":{},"name":"couch_chair_base_1.vmdl_c.couch001_chair_base","primitives":[{"attributes":{"POSITION":0,"TEXCOORD_0":1,"NORMAL":2,"TANGENT":3},"indices":4,"material":0}]}],"nodes":[{"name":"couch_chair_base_1.vmdl_c.couch001_chair_base","matrix":[3.027916E-09,0,0.025399996,0,0.025399996,3.027916E-09,0,0,0,0.025399996,3.027916E-09,0,0,0,0,1],"mesh":0}],"samplers":[{"magFilter":9729,"minFilter":9987}],"scenes":[{"name":"couch_chair_base_1.vmdl_c","nodes":[0]}],"textures":[{"name":"couch_chair_base_1_color_psd_d8067953.vtex","sampler":0,"source":0},{"name":"couch_chair_base_1_psd_bce63b92.vtex","sampler":0,"source":1},{"name":"couch_chair_base_1_ao_psd_29da7812_orm_1029829409.png","sampler":0,"source":2}]}