{"asset":{"copyright":"","generator":"Source 2 Viewer 11.1.0.0 - https://valveresourceformat.github.io","version":"2.0"},"accessors":[{"bufferView":0,"componentType":5126,"count":2008,"max":[10.34999942779541,10.34999942779541,20.354000091552734],"min":[-5.174999713897705,-10.34999942779541,0],"type":"VEC3"},{"bufferView":1,"componentType":5126,"count":2008,"max":[1.9951171875,0.99072265625],"min":[0.004947662353515625,-0.98583984375],"type":"VEC2"},{"bufferView":2,"componentType":5126,"count":2008,"max":[1,1,1],"min":[-1,-1,-1],"type":"VEC3"},{"bufferView":3,"componentType":5126,"count":2008,"max":[1,1,1,1],"min":[-1,-1,-1,-1],"type":"VEC4"},{"bufferView":4,"componentType":5125,"count":7872,"type":"SCALAR"}],"bufferViews":[{"buffer":0,"byteLength":24096,"byteOffset":63616,"target":34962},{"buffer":0,"byteLength":16064,"byteOffset":111808,"target":34962},{"buffer":0,"byteLength":24096,"byteOffset":87712,"target":34962},{"buffer":0,"byteLength":32128,"target":34962},{"buffer":0,"byteLength":31488,"byteOffset":32128,"target":34963}],"buffers":[{"byteLength":127872,"uri":"italy_bar_dispenser.bin"}],"images":[{"name":"bar_dispenser_color_psd_a9c78973.vtex","uri":"bar_dispenser_color_psd_a9c78973.png"},{"name":"bar_dispenser_normal_psd_83f93e7b.vtex","uri":"bar_dispenser_normal_psd_83f93e7b.png"},{"name":"bar_dispenser_ao_psd_47707e48_orm_2476810938.png","uri":"bar_dispenser_ao_psd_47707e48_orm_2476810938.png"}],"materials":[{"extras":{"baseColorTexture":{"index":0}},"name":"bar_dispenser","normalTexture":{"index":1},"occlusionTexture":{"index":2},"pbrMetallicRoughness":{"baseColorTexture":{"index":0},"metallicRoughnessTexture":{"index":2}}}],"meshes":[{"extras":{},"name":"italy_bar_dispenser.vmdl_c.italy_bar_dispenser","primitives":[{"attributes":{"POSITION":0,"TEXCOORD_0":1,"NORMAL":2,"TANGENT":3},"indices":4,"material":0}]}],"nodes":[{"name":"italy_bar_dispenser.vmdl_c.italy_bar_dispenser","matrix":[3.027916E-09,0,0.025399996,0,0.025399996,3.027916E-09,0,0,0,0.025399996,3.027916E-09,0,0,0,0,1],"mesh":0}],"samplers":[{"magFilter":9729,"minFilter":9987}],"scenes":[{"name":"italy_bar_dispenser.vmdl_c","nodes":[0]}],"textures":[{"name":"bar_dispenser_color_psd_a9c78973.vtex","sampler":0,"source":0},{"name":"bar_dispenser_normal_psd_83f93e7b.vtex","sampler":0,"source":1},{"name":"bar_dispenser_ao_psd_47707e48_orm_2476810938.png","sampler":0,"source":2}]}