{"asset":{"copyright":"","generator":"Source 2 Viewer 11.1.0.0 - https://valveresourceformat.github.io","version":"2.0"},"accessors":[{"bufferView":0,"componentType":5126,"count":456,"max":[15.638627052307129,16.4182186126709,5.789363861083984],"min":[-15.677138328552246,-16.441925048828125,-5.789360046386719],"type":"VEC3"},{"bufferView":1,"componentType":5126,"count":456,"max":[0.9517197012901306,0.4523758590221405],"min":[0.010803552344441414,0.0709250196814537],"type":"VEC2"},{"bufferView":2,"componentType":5126,"count":456,"max":[0.9998700022697449,0.9998700022697449,0.9998700022697449],"min":[-0.9997313618659973,-0.9998700022697449,-0.9998700022697449],"type":"VEC3"},{"bufferView":3,"componentType":5126,"count":456,"max":[0.9997313618659973,1,0.9941523671150208,-1],"min":[-1,-1,-0.9987523555755615,-1],"type":"VEC4"},{"bufferView":4,"componentType":5125,"count":2304,"type":"SCALAR"}],"bufferViews":[{"buffer":0,"byteLength":5472,"byteOffset":16512,"target":34962},{"buffer":0,"byteLength":3648,"byteOffset":27456,"target":34962},{"buffer":0,"byteLength":5472,"byteOffset":21984,"target":34962},{"buffer":0,"byteLength":7296,"byteOffset":9216,"target":34962},{"buffer":0,"byteLength":9216,"target":34963}],"buffers":[{"byteLength":31104,"uri":"couch_chair_cushion_1.bin"}],"images":[{"name":"couch_chair_cushion_1_color_psd_a1158877.vtex","uri":"couch_chair_cushion_1_color_psd_a1158877.png"},{"name":"couch_chair_cushion_1_psd_4c0b3065.vtex","uri":"couch_chair_cushion_1_psd_4c0b3065.png"},{"name":"couch_chair_cushion_1_ao_psd_fbe444ee_orm_600264621.png","uri":"couch_chair_cushion_1_ao_psd_fbe444ee_orm_600264621.png"}],"materials":[{"extras":{"baseColorTexture":{"index":0}},"name":"couch_chair_cushion_1_cushions001","normalTexture":{"index":1},"occlusionTexture":{"index":2},"pbrMetallicRoughness":{"baseColorTexture":{"index":0},"metallicRoughnessTexture":{"index":2}}}],"meshes":[{"extras":{},"name":"couch_chair_cushion_1.vmdl_c.couch_cushion_chair","primitives":[{"attributes":{"POSITION":0,"TEXCOORD_0":1,"NORMAL":2,"TANGENT":3},"indices":4,"material":0}]}],"nodes":[{"name":"couch_chair_cushion_1.vmdl_c.couch_cushion_chair","matrix":[3.027916E-09,0,0.025399996,0,0.025399996,3.027916E-09,0,0,0,0.025399996,3.027916E-09,0,0,0,0,1],"mesh":0}],"samplers":[{"magFilter":9729,"minFilter":9987}],"scenes":[{"name":"couch_chair_cushion_1.vmdl_c","nodes":[0]}],"textures":[{"name":"couch_chair_cushion_1_color_psd_a1158877.vtex","sampler":0,"source":0},{"name":"couch_chair_cushion_1_psd_4c0b3065.vtex","sampler":0,"source":1},{"name":"couch_chair_cushion_1_ao_psd_fbe444ee_orm_600264621.png","sampler":0,"source":2}]}