{"asset":{"copyright":"","generator":"Source 2 Viewer 11.1.0.0 - https://valveresourceformat.github.io","version":"2.0"},"accessors":[{"bufferView":0,"componentType":5126,"count":1417,"max":[8.199999809265137,8.199999809265137,32.459999084472656],"min":[-8.199999809265137,-8.199999809265137,0],"type":"VEC3"},{"bufferView":1,"componentType":5126,"count":1417,"max":[0.9920957088470459,0.9972838759422302],"min":[0.007080294191837311,0.005737479776144028],"type":"VEC2"},{"bufferView":2,"componentType":5126,"count":1417,"max":[0.9999995231628418,0.9999995231628418,0.9999990463256836],"min":[-0.9999995231628418,-0.9999995231628418,-1],"type":"VEC3"},{"bufferView":3,"componentType":5126,"count":1417,"max":[1,0.9999997019767761,0.9999995231628418,-1],"min":[-0.9999989867210388,-0.9999997019767761,-0.9438521862030029,-1],"type":"VEC4"},{"bufferView":4,"componentType":5125,"count":6834,"type":"SCALAR"}],"bufferViews":[{"buffer":0,"byteLength":17004,"byteOffset":50008,"target":34962},{"buffer":0,"byteLength":11336,"byteOffset":84016,"target":34962},{"buffer":0,"byteLength":17004,"byteOffset":67012,"target":34962},{"buffer":0,"byteLength":22672,"byteOffset":27336,"target":34962},{"buffer":0,"byteLength":27336,"target":34963}],"buffers":[{"byteLength":95352,"uri":"italy_bar_stool.bin"}],"images":[{"name":"italy_bar_stool_color_psd_a6ca6d08.vtex","uri":"italy_bar_stool_color_psd_a6ca6d08.png"},{"name":"italy_bar_stool_normal_psd_2c4eb238.vtex","uri":"italy_bar_stool_normal_psd_2c4eb238.png"},{"name":"italy_bar_stool_ao_psd_89fc7b69_orm_3444705490.png","uri":"italy_bar_stool_ao_psd_89fc7b69_orm_3444705490.png"}],"materials":[{"extras":{"baseColorTexture":{"index":0}},"name":"italy_bar_stool","normalTexture":{"index":1},"occlusionTexture":{"index":2},"pbrMetallicRoughness":{"baseColorTexture":{"index":0},"metallicRoughnessTexture":{"index":2}}}],"meshes":[{"extras":{},"name":"italy_bar_stool.vmdl_c.italy_bar_stool","primitives":[{"attributes":{"POSITION":0,"TEXCOORD_0":1,"NORMAL":2,"TANGENT":3},"indices":4,"material":0}]}],"nodes":[{"name":"italy_bar_stool.vmdl_c.italy_bar_stool","matrix":[3.027916E-09,0,0.025399996,0,0.025399996,3.027916E-09,0,0,0,0.025399996,3.027916E-09,0,0,0,0,1],"mesh":0}],"samplers":[{"magFilter":9729,"minFilter":9987}],"scenes":[{"name":"italy_bar_stool.vmdl_c","nodes":[0]}],"textures":[{"name":"italy_bar_stool_color_psd_a6ca6d08.vtex","sampler":0,"source":0},{"name":"italy_bar_stool_normal_psd_2c4eb238.vtex","sampler":0,"source":1},{"name":"italy_bar_stool_ao_psd_89fc7b69_orm_3444705490.png","sampler":0,"source":2}]}