{"asset":{"copyright":"","generator":"Source 2 Viewer 11.1.0.0 - https://valveresourceformat.github.io","version":"2.0"},"accessors":[{"bufferView":0,"componentType":5126,"count":667,"max":[26.5013484954834,6.799676895141602,127.99999237060547],"min":[-26.50137710571289,-8.189658164978027,-8.347687071363907E-06],"type":"VEC3"},{"bufferView":1,"componentType":5126,"count":667,"max":[1.8408203125,0.99853515625],"min":[-0.9443359375,0.439453125],"type":"VEC2"},{"bufferView":2,"componentType":5126,"count":667,"max":[1,1,1],"min":[-1,-0,-1],"type":"VEC3"},{"bufferView":3,"componentType":5126,"count":667,"max":[1,1,1,1],"min":[-1,-1,-1,-1],"type":"VEC4"},{"bufferView":4,"componentType":5126,"count":667,"max":[1,1,1,1],"min":[0.6000000238418579,0.6000000238418579,0.6000000238418579,1],"type":"VEC4"},{"bufferView":5,"componentType":5126,"count":8,"max":[16.88789176940918,-8.189642906188965,106.04530334472656],"min":[-16.899198532104492,-8.189661026000977,33.98100662231445],"type":"VEC3"},{"bufferView":6,"componentType":5126,"count":8,"max":[0.20877712965011597,0.40037232637405396],"min":[0.02206488326191902,0.022675253450870514],"type":"VEC2"},{"bufferView":7,"componentType":5126,"count":8,"max":[0,1,0],"min":[0,1,0],"type":"VEC3"},{"bufferView":8,"componentType":5126,"count":8,"max":[-1,0,0,-1],"min":[-1,0,-0,-1],"type":"VEC4"},{"bufferView":9,"componentType":5125,"count":1722,"type":"SCALAR"},{"bufferView":10,"componentType":5125,"count":12,"type":"SCALAR"}],"bufferViews":[{"buffer":0,"byteLength":8004,"byteOffset":21344,"target":34962},{"buffer":0,"byteLength":5336,"byteOffset":44240,"target":34962},{"buffer":0,"byteLength":8004,"byteOffset":29348,"target":34962},{"buffer":0,"byteLength":10672,"target":34962},{"buffer":0,"byteLength":10672,"byteOffset":10672,"target":34962},{"buffer":0,"byteLength":96,"byteOffset":49704,"target":34962},{"buffer":0,"byteLength":64,"byteOffset":49896,"target":34962},{"buffer":0,"byteLength":96,"byteOffset":49800,"target":34962},{"buffer":0,"byteLength":128,"byteOffset":49576,"target":34962},{"buffer":0,"byteLength":6888,"byteOffset":37352,"target":34963},{"buffer":0,"byteLength":48,"byteOffset":49960,"target":34963}],"buffers":[{"byteLength":50008,"uri":"italy_window_1.bin"}],"images":[{"name":"window_atlas_1_color_psd_22cb433.vtex","uri":"window_atlas_1_color_psd_22cb433.png"},{"name":"concrete_trim_02_color_tga_256f6ee8.vtex","uri":"concrete_trim_02_color_tga_256f6ee8.png"},{"name":"window_atlas_1_normal_tga_2d225f46.vtex","uri":"window_atlas_1_normal_tga_2d225f46.png"},{"name":"window_atlas_1_color_psd_22cb433_orm_3016453992.png","uri":"window_atlas_1_color_psd_22cb433_orm_3016453992.png"},{"name":"concrete_trim_02_normal_tga_ab0db983.vtex","uri":"concrete_trim_02_normal_tga_ab0db983.png"},{"name":"concrete_trim_02_color_tga_256f6ee8_orm_2735845635.png","uri":"concrete_trim_02_color_tga_256f6ee8_orm_2735845635.png"}],"materials":[{"extras":{"baseColorTexture":{"index":1}},"name":"italy_trimkit_concrete_01","normalTexture":{"index":4},"occlusionTexture":{"index":5},"pbrMetallicRoughness":{"baseColorTexture":{"index":1},"metallicRoughnessTexture":{"index":5}}},{"extras":{"baseColorTexture":{"index":0}},"name":"window_atlas_1","normalTexture":{"index":2},"occlusionTexture":{"index":3},"pbrMetallicRoughness":{"baseColorTexture":{"index":0},"metallicRoughnessTexture":{"index":3}}}],"meshes":[{"extras":{},"name":"italy_window_1.vmdl_c.hotel_01_window_01a","primitives":[{"attributes":{"POSITION":0,"TEXCOORD_0":1,"NORMAL":2,"TANGENT":3,"COLOR_0":4},"indices":9,"material":0},{"attributes":{"POSITION":5,"TEXCOORD_0":6,"NORMAL":7,"TANGENT":8},"indices":10,"material":1}]}],"nodes":[{"name":"italy_window_1.vmdl_c.hotel_01_window_01a","matrix":[3.027916E-09,0,0.025399996,0,0.025399996,3.027916E-09,0,0,0,0.025399996,3.027916E-09,0,0,0,0,1],"mesh":0}],"samplers":[{"magFilter":9729,"minFilter":9987}],"scenes":[{"name":"italy_window_1.vmdl_c","nodes":[0]}],"textures":[{"name":"window_atlas_1_color_psd_22cb433.vtex","sampler":0,"source":0},{"name":"concrete_trim_02_color_tga_256f6ee8.vtex","sampler":0,"source":1},{"name":"window_atlas_1_normal_tga_2d225f46.vtex","sampler":0,"source":2},{"name":"window_atlas_1_color_psd_22cb433_orm_3016453992.png","sampler":0,"source":3},{"name":"concrete_trim_02_normal_tga_ab0db983.vtex","sampler":0,"source":4},{"name":"concrete_trim_02_color_tga_256f6ee8_orm_2735845635.png","sampler":0,"source":5}]}