{"asset":{"copyright":"","generator":"Source 2 Viewer 11.1.0.0 - https://valveresourceformat.github.io","version":"2.0"},"accessors":[{"bufferView":0,"componentType":5126,"count":341,"max":[1.7745361328125,1.82470703125,14.341965675354004],"min":[-1.777465581893921,-1.7353514432907104,0.0569915734231472],"type":"VEC3"},{"bufferView":1,"componentType":5126,"count":341,"max":[0.9912412166595459,0.9464400410652161],"min":[0.06085390970110893,0.3555711507797241],"type":"VEC2"},{"bufferView":2,"componentType":5126,"count":341,"max":[1,1,1],"min":[-1,-1,-1],"type":"VEC3"},{"bufferView":3,"componentType":5126,"count":341,"max":[1,1,1,1],"min":[-0.9678224921226501,-1,-0.5749454498291016,-1],"type":"VEC4"},{"bufferView":4,"componentType":5125,"count":1416,"type":"SCALAR"}],"bufferViews":[{"buffer":0,"byteLength":4092,"byteOffset":11120,"target":34962},{"buffer":0,"byteLength":2728,"byteOffset":19304,"target":34962},{"buffer":0,"byteLength":4092,"byteOffset":15212,"target":34962},{"buffer":0,"byteLength":5456,"byteOffset":5664,"target":34962},{"buffer":0,"byteLength":5664,"target":34963}],"buffers":[{"byteLength":22032,"uri":"italy_wine_bottle_3.bin"}],"images":[{"name":"wine_bottles_02_color_psd_b004a502.vtex","uri":"wine_bottles_02_color_psd_b004a502.png"},{"name":"wine_bottles_02_rough_psd_cb21e47a.vtex","uri":"wine_bottles_02_rough_psd_cb21e47a.png"},{"name":"wine_bottles_02_color_psd_b004a502_orm_961801211.png","uri":"wine_bottles_02_color_psd_b004a502_orm_961801211.png"}],"materials":[{"extras":{"baseColorTexture":{"index":0}},"name":"wine_bottles_02","normalTexture":{"index":1},"occlusionTexture":{"index":2},"pbrMetallicRoughness":{"baseColorTexture":{"index":0},"metallicRoughnessTexture":{"index":2}}}],"meshes":[{"extras":{},"name":"italy_wine_bottle_3.vmdl_c.italy_wine_bottle_3","primitives":[{"attributes":{"POSITION":0,"TEXCOORD_0":1,"NORMAL":2,"TANGENT":3},"indices":4,"material":0}]}],"nodes":[{"name":"italy_wine_bottle_3.vmdl_c.italy_wine_bottle_3","matrix":[3.027916E-09,0,0.025399996,0,0.025399996,3.027916E-09,0,0,0,0.025399996,3.027916E-09,0,0,0,0,1],"mesh":0}],"samplers":[{"magFilter":9729,"minFilter":9987}],"scenes":[{"name":"italy_wine_bottle_3.vmdl_c","nodes":[0]}],"textures":[{"name":"wine_bottles_02_color_psd_b004a502.vtex","sampler":0,"source":0},{"name":"wine_bottles_02_rough_psd_cb21e47a.vtex","sampler":0,"source":1},{"name":"wine_bottles_02_color_psd_b004a502_orm_961801211.png","sampler":0,"source":2}]}