{"asset":{"copyright":"","generator":"Source 2 Viewer 11.1.0.0 - https://valveresourceformat.github.io","version":"2.0"},"accessors":[{"bufferView":0,"componentType":5126,"count":4789,"max":[8.403948783874512,33.40299606323242,35.99998474121094],"min":[-8.280801773071289,-33.40299606323242,-1.3497000281859073E-06],"type":"VEC3"},{"bufferView":1,"componentType":5126,"count":4789,"max":[39.646461486816406,47.871498107910156],"min":[-38.847381591796875,-52.136165618896484],"type":"VEC2"},{"bufferView":2,"componentType":5126,"count":4789,"max":[1,1,1],"min":[-1,-1,-1],"type":"VEC3"},{"bufferView":3,"componentType":5126,"count":4789,"max":[1,1,1,1],"min":[-1,-1,-1,-1],"type":"VEC4"},{"bufferView":4,"componentType":5126,"count":4789,"max":[1,1,1,1],"min":[1,1,1,1],"type":"VEC4"},{"bufferView":5,"componentType":5126,"count":4789,"max":[0,0,0,0],"min":[0,0,0,0],"type":"VEC4"},{"bufferView":6,"componentType":5125,"count":8280,"type":"SCALAR"},{"bufferView":7,"componentType":5125,"count":2640,"type":"SCALAR"}],"bufferViews":[{"buffer":0,"byteLength":57468,"byteOffset":229872,"target":34962},{"buffer":0,"byteLength":38312,"byteOffset":344808,"target":34962},{"buffer":0,"byteLength":57468,"byteOffset":287340,"target":34962},{"buffer":0,"byteLength":76624,"target":34962},{"buffer":0,"byteLength":76624,"byteOffset":76624,"target":34962},{"buffer":0,"byteLength":76624,"byteOffset":153248,"target":34962},{"buffer":0,"byteLength":33120,"byteOffset":383120,"target":34963},{"buffer":0,"byteLength":10560,"byteOffset":416240,"target":34963}],"buffers":[{"byteLength":426800,"uri":"end_table_wood_1.bin"}],"images":[{"name":"metal_trim_01_painted_color_tga_c75c9d4b.vtex","uri":"metal_trim_01_painted_color_tga_c75c9d4b.png"},{"name":"wood_trim_plywood_02_color_tga_d9460e3e.vtex","uri":"wood_trim_plywood_02_color_tga_d9460e3e.png"},{"name":"metal_trim_01_painted_normal_tga_77bada7.vtex","uri":"metal_trim_01_painted_normal_tga_77bada7.png"},{"name":"wood_trim_plywood_02_normal_tga_6b347aa2.vtex","uri":"wood_trim_plywood_02_normal_tga_6b347aa2.png"},{"name":"wood_trim_plywood_02_color_tga_d9460e3e_orm_903214483.png","uri":"wood_trim_plywood_02_color_tga_d9460e3e_orm_903214483.png"},{"name":"metal_trim_01_painted_color_tga_c75c9d4b_orm_3341844886.png","uri":"metal_trim_01_painted_color_tga_c75c9d4b_orm_3341844886.png"}],"materials":[{"extras":{"baseColorTexture":{"index":1}},"name":"painted_wood_trim_1","normalTexture":{"index":3},"occlusionTexture":{"index":4},"pbrMetallicRoughness":{"baseColorTexture":{"index":1},"metallicRoughnessTexture":{"index":4}}},{"extras":{"baseColorTexture":{"index":0}},"name":"metal_trim_painted_blend_01","normalTexture":{"index":2},"occlusionTexture":{"index":5},"pbrMetallicRoughness":{"baseColorTexture":{"index":0},"metallicRoughnessTexture":{"index":5}}}],"meshes":[{"extras":{},"name":"end_table_wood_1.vmdl_c.unnamed_1","primitives":[{"attributes":{"POSITION":0,"TEXCOORD_0":1,"NORMAL":2,"TANGENT":3,"COLOR_0":4,"_TEXCOORD_4":5},"indices":6,"material":0},{"attributes":{"POSITION":0,"TEXCOORD_0":1,"NORMAL":2,"TANGENT":3,"COLOR_0":4,"_TEXCOORD_4":5},"indices":7,"material":1}]}],"nodes":[{"name":"end_table_wood_1.vmdl_c.unnamed_1","matrix":[3.027916E-09,0,0.025399996,0,0.025399996,3.027916E-09,0,0,0,0.025399996,3.027916E-09,0,0,0,0,1],"mesh":0}],"samplers":[{"magFilter":9729,"minFilter":9987}],"scenes":[{"name":"end_table_wood_1.vmdl_c","nodes":[0]}],"textures":[{"name":"metal_trim_01_painted_color_tga_c75c9d4b.vtex","sampler":0,"source":0},{"name":"wood_trim_plywood_02_color_tga_d9460e3e.vtex","sampler":0,"source":1},{"name":"metal_trim_01_painted_normal_tga_77bada7.vtex","sampler":0,"source":2},{"name":"wood_trim_plywood_02_normal_tga_6b347aa2.vtex","sampler":0,"source":3},{"name":"wood_trim_plywood_02_color_tga_d9460e3e_orm_903214483.png","sampler":0,"source":4},{"name":"metal_trim_01_painted_color_tga_c75c9d4b_orm_3341844886.png","sampler":0,"source":5}]}